<svg width="47" height="47" viewBox="0 0 47 47" fill="none" xmlns="http://www.w3.org/2000/svg">
<path d="M4.08651 10.203C2.35422 13.019 1.4026 16.2408 1.32638 19.5414C1.25247 22.8415 2.05627 26.1027 3.65919 28.9944C3.74926 29.1458 3.77467 29.3294 3.72617 29.4993C3.67997 29.6691 3.5668 29.8137 3.40973 29.9009C3.25498 29.9858 3.07021 30.0064 2.89929 29.9559C2.73068 29.9032 2.58748 29.7884 2.50433 29.6301C0.788235 26.5365 -0.0756348 23.0459 0.00519408 19.5138C0.0860348 15.9819 1.10463 12.5325 2.95932 9.51686C3.04709 9.3631 3.19491 9.25065 3.36814 9.20704C3.54137 9.16344 3.72384 9.18868 3.87628 9.28278C4.03103 9.37458 4.13728 9.52375 4.17886 9.69816C4.21812 9.87028 4.18348 10.0516 4.08647 10.2008L4.08651 10.203ZM18.3909 6.00791C22.3682 5.64072 26.3088 7.03146 29.1611 9.81065L29.8425 8.64022H29.8402C26.7267 5.74171 22.5135 4.30738 18.2663 4.69984C17.9014 4.73426 17.6358 5.05555 17.6704 5.41589C17.7051 5.77622 18.0259 6.04234 18.3909 6.00791ZM19.5711 1.31934H19.5734C23.9827 1.20688 28.2925 2.63435 31.7528 5.35384L32.4203 4.2041H32.4226C28.7432 1.37215 24.1907 -0.112705 19.539 0.00667618C19.1787 0.0204455 18.8969 0.318788 18.9062 0.676783C18.9131 1.0348 19.2108 1.32163 19.5711 1.31934ZM8.60926 10.6137C8.46837 10.5127 8.29052 10.4737 8.11729 10.5012C7.94406 10.531 7.79162 10.6274 7.68999 10.7674C5.01767 14.5082 4.24622 19.268 5.59507 23.6537C5.68052 23.9268 5.9369 24.115 6.22561 24.115C6.29259 24.115 6.35958 24.1058 6.42194 24.0875C6.7707 23.9796 6.96472 23.6124 6.85847 23.2659C5.62972 19.2704 6.33417 14.9374 8.76632 11.5317C8.86795 11.3894 8.90952 11.2127 8.8795 11.0406C8.84947 10.8684 8.75246 10.7146 8.60926 10.6137ZM43.0612 33.7466C42.9549 35.0272 42.2158 36.1724 41.0887 36.8012L37.1783 39.0456C38.1923 41.4622 37.243 44.2528 34.961 45.5634C32.679 46.8738 29.7711 46.2955 28.1707 44.2139L24.2603 46.4561C23.6598 46.8095 22.9738 46.9977 22.2763 47C21.6988 46.9977 21.1306 46.8692 20.6087 46.6282C19.4261 46.105 18.5807 45.0356 18.3567 43.7687L16.9963 36.6429L11.0444 26.405C9.90796 24.4291 9.4114 22.1548 9.6216 19.8896C9.8341 17.6245 10.7441 15.4788 12.2269 13.7461L11.9682 13.3055C11.0005 11.5613 11.6149 9.36965 13.3494 8.37366C15.084 7.37766 17.3014 7.9445 18.3384 9.64737L18.6017 10.0995C21.8122 9.51885 25.1195 10.3611 27.6537 12.4036L26.9839 13.5579C25.4479 12.259 23.5448 11.4627 21.5353 11.2745C19.5259 11.0886 17.5072 11.52 15.7541 12.5138C13.523 13.8035 11.8923 15.9195 11.2248 18.3982C10.555 20.8791 10.9014 23.5205 12.1856 25.7467L17.8629 35.514L34.7495 25.8272L33.4768 23.6332H35.0035L36.17 25.6436L41.6994 30.378H41.6971C42.688 31.2065 43.1975 32.4683 43.0612 33.7466ZM36.0213 39.711L29.3256 43.5504C30.5451 45.0123 32.6493 45.3864 34.303 44.4363C35.9591 43.4884 36.6842 41.4919 36.0213 39.711ZM46.7591 21.4614C46.4588 22.003 45.8837 22.3335 45.2624 22.3197H26.4128C25.7961 22.3197 25.2256 21.9938 24.9161 21.4614C24.6066 20.9313 24.6066 20.2772 24.9161 19.7448L28.3784 13.7869C28.3923 13.7662 28.4038 13.7456 28.4154 13.7226L29.628 11.6365L30.5588 10.0346L30.5657 10.0231L33.1757 5.53197L33.1826 5.52279L34.3421 3.52392C34.6493 2.99379 35.2221 2.66564 35.8387 2.66564C36.4555 2.66564 37.0259 2.99381 37.3354 3.52392L46.7593 19.7443C47.0804 20.2722 47.0801 20.9335 46.7591 21.4614ZM36.4973 17.8101C36.4973 17.4475 36.2017 17.1537 35.8367 17.1537C35.4718 17.1537 35.1761 17.4475 35.1761 17.8101V18.6914C35.1761 19.054 35.4718 19.3477 35.8367 19.3477C36.2016 19.3477 36.4973 19.054 36.4973 18.6914V17.8101ZM36.4973 6.78971V6.792C36.4973 6.4294 36.2017 6.13564 35.8367 6.13564C35.4718 6.13564 35.1761 6.42939 35.1761 6.792V14.5377C35.1761 14.9003 35.4718 15.194 35.8367 15.194C36.2016 15.194 36.4973 14.9003 36.4973 14.5377V6.78971Z" fill="#FFA500"/>
</svg>
