<svg width="43" height="46" viewBox="0 0 43 46" fill="none" xmlns="http://www.w3.org/2000/svg">
<path d="M9.31667 45.8658H33.6833C36.1543 45.8658 38.524 44.8842 40.2712 43.137C42.0184 41.3898 43 39.02 43 36.5491C43 34.0782 42.0184 31.7084 40.2712 29.9612C38.524 28.214 36.1543 27.2324 33.6833 27.2324H9.31667C6.84573 27.2324 4.476 28.214 2.72879 29.9612C0.981574 31.7084 0 34.0782 0 36.5491C0 39.02 0.981574 41.3898 2.72879 43.137C4.476 44.8842 6.84573 45.8658 9.31667 45.8658ZM9.31667 31.5324H33.6833C35.0138 31.5324 36.2898 32.061 37.2306 33.0018C38.1715 33.9426 38.7 35.2186 38.7 36.5491C38.7 37.8796 38.1715 39.1556 37.2306 40.0964C36.2898 41.0372 35.0138 41.5658 33.6833 41.5658H9.31667C7.98616 41.5658 6.71016 41.0372 5.76935 40.0964C4.82854 39.1556 4.3 37.8796 4.3 36.5491C4.3 35.2186 4.82854 33.9426 5.76935 33.0018C6.71016 32.061 7.98616 31.5324 9.31667 31.5324Z" fill="#9B9B9B"/>
<path d="M10.0316 20.7835C10.6018 20.7835 11.1487 20.557 11.5519 20.1538C11.9551 19.7506 12.1816 19.2037 12.1816 18.6335V5.90552L15.5642 9.31685C15.9247 9.70217 16.4083 9.94955 16.9317 10.0163C17.4551 10.083 17.9853 9.9649 18.4309 9.68235C18.6904 9.50348 18.9074 9.26974 19.0665 8.9977C19.2256 8.72565 19.323 8.42195 19.3517 8.10809C19.3804 7.79423 19.3398 7.4779 19.2327 7.18149C19.1256 6.88508 18.9546 6.61585 18.7319 6.39285L13.9732 1.65569C13.4565 1.1365 12.8423 0.724524 12.1658 0.443408C11.4894 0.162292 10.7641 0.0175781 10.0316 0.0175781C9.29906 0.0175781 8.57375 0.162292 7.89732 0.443408C7.22089 0.724524 6.60666 1.1365 6.08991 1.65569L1.32408 6.40002C1.10136 6.62302 0.930395 6.89225 0.823284 7.18866C0.716174 7.48507 0.675538 7.8014 0.704257 8.11526C0.732976 8.42911 0.830346 8.73282 0.989472 9.00486C1.1486 9.27691 1.36559 9.51065 1.62508 9.68952C2.07066 9.97207 2.60091 10.0902 3.12429 10.0234C3.64766 9.95671 4.13132 9.70934 4.49174 9.32402L7.88158 5.90552V18.6335C7.88158 19.2037 8.10809 19.7506 8.5113 20.1538C8.9145 20.557 9.46136 20.7835 10.0316 20.7835Z" fill="#4FBBBD"/>
<path d="M32.9632 0C32.393 0 31.8461 0.226517 31.4429 0.62972C31.0397 1.03292 30.8132 1.57978 30.8132 2.15V14.878L27.4305 11.4667C26.9805 11.0139 26.3704 10.7565 25.732 10.75C25.3204 10.745 24.9173 10.8677 24.5782 11.1012C24.3187 11.28 24.1017 11.5138 23.9426 11.7858C23.7835 12.0579 23.6861 12.3616 23.6574 12.6754C23.6287 12.9893 23.6693 13.3056 23.7764 13.602C23.8835 13.8984 24.0545 14.1677 24.2772 14.3907L29.0359 19.1278C29.5526 19.647 30.1669 20.059 30.8433 20.3401C31.5197 20.6212 32.245 20.7659 32.9775 20.7659C33.7101 20.7659 34.4354 20.6212 35.1118 20.3401C35.7882 20.059 36.4024 19.647 36.9192 19.1278L41.685 14.3835C41.9077 14.1605 42.0787 13.8913 42.1858 13.5949C42.2929 13.2985 42.3336 12.9821 42.3049 12.6683C42.2761 12.3544 42.1788 12.0507 42.0196 11.7787C41.8605 11.5066 41.6435 11.2729 41.384 11.094C40.9385 10.8115 40.4082 10.6933 39.8848 10.7601C39.3614 10.8268 38.8778 11.0742 38.5174 11.4595L35.1132 14.878V2.15C35.1132 1.57978 34.8867 1.03292 34.4835 0.62972C34.0803 0.226517 33.5334 0 32.9632 0Z" fill="#6099D2"/>
</svg>
