<svg width="36" height="38" viewBox="0 0 36 38" fill="none" xmlns="http://www.w3.org/2000/svg">
<path d="M16.2613 0V21.3331H19.7387V0H16.2613ZM24.1124 3.22562V6.80189C26.6641 7.96649 28.8269 9.83563 30.3443 12.1876C31.8616 14.5396 32.6699 17.2757 32.6732 20.0714C32.6732 23.9475 31.1273 27.6649 28.3755 30.4057C25.6238 33.1466 21.8916 34.6864 18 34.6864C14.1084 34.6864 10.3763 33.1466 7.62449 30.4058C4.87274 27.6649 3.32681 23.9475 3.3268 20.0714C3.33056 17.2761 4.13905 14.5405 5.6564 12.189C7.17375 9.83753 9.33631 7.96878 11.8876 6.80435V3.23185C8.4095 4.48257 5.40249 6.76993 3.27554 9.78289C1.14858 12.7958 0.00489157 16.3882 0 20.0714C-3.13131e-06 22.4258 0.465578 24.7572 1.37016 26.9324C2.27475 29.1076 3.60062 31.084 5.27207 32.7488C6.94353 34.4137 8.92783 35.7343 11.1117 36.6353C13.2956 37.5363 15.6362 38 18 38C20.3638 38 22.7044 37.5363 24.8883 36.6353C27.0722 35.7343 29.0565 34.4137 30.7279 32.7488C32.3994 31.084 33.7253 29.1076 34.6298 26.9324C35.5344 24.7572 36 22.4258 36 20.0714C35.9964 16.3871 34.8533 12.7934 32.7263 9.77921C30.5992 6.76502 27.5915 4.47671 24.1124 3.22562Z" fill="#3A86D1"/>
</svg>
