<svg width="38" height="42" viewBox="0 0 38 42" fill="none" xmlns="http://www.w3.org/2000/svg">
<circle cx="15.7719" cy="29.7856" r="2.92032" fill="#51DCA7"/>
<circle cx="27.4516" cy="20.4418" r="2.92032" fill="#51DCA7"/>
<circle cx="20.4359" cy="11.0961" r="2.92032" fill="#51DCA7"/>
<path d="M20.2443 13.4158C22.1125 13.4158 23.0538 11.148 21.7312 9.82439C20.4104 8.50366 18.1426 9.44306 18.1426 11.3113C18.1426 12.4735 19.0849 13.4158 20.2443 13.4158ZM23.098 14.1641C21.5218 15.7375 18.9677 15.7375 17.3934 14.1641C15.8172 12.5879 15.8172 10.0338 17.3934 8.45947C18.9668 6.88323 21.5208 6.88323 23.098 8.45947C24.6714 10.0338 24.6714 12.5879 23.098 14.1641ZM12.5994 19.1118H10.7013V17.8535C10.7013 16.5818 11.3218 15.5069 12.4245 14.8691L15.7326 12.9577C15.9555 13.5647 16.2936 14.1151 16.7268 14.5781L13.3726 16.5136C12.8635 16.8075 12.5994 17.2647 12.5994 17.8535V19.1118ZM27.9468 22.9232C29.8093 22.9232 30.7458 20.6631 29.4308 19.3452C28.113 18.0303 25.8528 18.9668 25.8528 20.8264C25.8538 21.9867 26.7903 22.9232 27.9468 22.9232ZM30.7871 23.6667C29.2186 25.2352 26.6789 25.2352 25.1103 23.6667C23.5418 22.0981 23.5418 19.5585 25.1103 17.9899C26.6789 16.4214 29.2186 16.4214 30.7871 17.9899C32.3557 19.5585 32.3557 22.0991 30.7871 23.6667ZM23.2584 21.7773H2.49739C2.28512 21.7773 2.11318 21.9492 2.11318 22.1615V29.3963C2.11318 30.0226 2.39077 30.5047 2.9354 30.8179L17.7286 39.358C18.2704 39.6711 18.8284 39.6711 19.3702 39.358L34.1634 30.8169C34.708 30.5038 34.9856 30.0216 34.9856 29.3953V12.3122C34.9856 11.6859 34.708 11.2037 34.1634 10.8906L19.3702 2.3495C18.8284 2.03637 18.2704 2.03637 17.7286 2.3495L2.96325 10.8752C2.4023 11.2153 2.11414 11.6456 2.11414 12.3131V15.48C2.11414 16.8767 0.000960742 16.8767 0.000960742 15.48V12.3131C0.000960742 10.9271 0.676218 9.7562 1.87977 9.06173L16.6509 0.531204C17.8602 -0.166145 19.2155 -0.182472 20.4277 0.517757L35.2209 9.05885C36.4216 9.75043 37.0998 10.929 37.0998 12.3122V29.3953C37.0998 30.7785 36.4216 31.9571 35.2209 32.6487L20.4268 41.1907C19.2424 41.8736 17.8564 41.8794 16.672 41.1907L1.88169 32.6525C0.678139 31.9609 0 30.7843 0 29.3963V20.8273C0 20.3077 0.427439 19.8803 0.947089 19.8803H23.2575C23.1336 20.5027 23.1336 21.1539 23.2584 21.7773ZM15.4742 32.1866C17.3425 32.1866 18.2838 29.9188 16.964 28.5952C15.6404 27.2745 13.3726 28.2139 13.3726 30.0821C13.3726 31.2444 14.3139 32.1866 15.4742 32.1866ZM18.328 32.9349C16.7518 34.5083 14.1977 34.5083 12.6234 32.9349C11.0471 31.3587 11.0471 28.8046 12.6234 27.2303C14.1967 25.654 16.7508 25.654 18.328 27.2303C19.9014 28.8046 19.9014 31.3587 18.328 32.9349ZM10.8425 28.818L7.51812 26.8989C6.4183 26.2621 5.79684 25.1863 5.79684 23.9145V22.5448H7.69198V23.9145C7.69198 24.5024 7.95612 24.9605 8.46809 25.2544L11.6974 27.1198C11.3055 27.6154 11.0116 28.1918 10.8425 28.818Z" fill="#51DCA8"/>
</svg>
