<svg width="45" height="41" viewBox="0 0 45 41" fill="none" xmlns="http://www.w3.org/2000/svg">
<path d="M43.476 28.535L35.406 25.215L43.476 21.875C43.7947 21.742 44.0669 21.5177 44.2584 21.2303C44.4498 20.9429 44.552 20.6053 44.552 20.26C44.552 19.9147 44.4498 19.5771 44.2584 19.2897C44.0669 19.0023 43.7947 18.778 43.476 18.645L35.366 15.215L43.456 11.855C43.7747 11.722 44.0469 11.4977 44.2384 11.2103C44.4298 10.9229 44.532 10.5853 44.532 10.24C44.532 9.89469 44.4298 9.55708 44.2384 9.2697C44.0469 8.98232 43.7747 8.75801 43.456 8.62501L22.936 0.135008C22.7239 0.0458982 22.4961 0 22.266 0C22.0359 0 21.8081 0.0458982 21.596 0.135008L1.076 8.64501C0.757316 8.77801 0.485103 9.00232 0.293634 9.2897C0.102165 9.57708 0 9.91468 0 10.26C0 10.6053 0.102165 10.9429 0.293634 11.2303C0.485103 11.5177 0.757316 11.742 1.076 11.875L9.176 15.215L1.076 18.575C0.757316 18.708 0.485103 18.9323 0.293634 19.2197C0.102165 19.5071 0 19.8447 0 20.19C0 20.5353 0.102165 20.8729 0.293634 21.1603C0.485103 21.4477 0.757316 21.672 1.076 21.805L9.146 25.215L1.076 28.535C0.757316 28.668 0.485103 28.8923 0.293634 29.1797C0.102165 29.4671 0 29.8047 0 30.15C0 30.4953 0.102165 30.8329 0.293634 31.1203C0.485103 31.4077 0.757316 31.632 1.076 31.765L21.606 40.295C21.8173 40.3875 22.0454 40.4353 22.276 40.4353C22.5066 40.4353 22.7347 40.3875 22.946 40.295L43.476 31.765C43.7947 31.632 44.0669 31.4077 44.2584 31.1203C44.4498 30.8329 44.552 30.4953 44.552 30.15C44.552 29.8047 44.4498 29.4671 44.2584 29.1797C44.0669 28.8923 43.7947 28.668 43.476 28.535ZM22.276 3.64501L38.276 10.265L22.276 16.885L14.446 13.635L6.276 10.265L22.276 3.64501ZM13.746 17.135L21.596 20.395C21.8088 20.4814 22.0364 20.5256 22.266 20.525C22.4958 20.5274 22.7238 20.4832 22.936 20.395L30.796 17.135L38.276 20.215L30.276 23.545L22.276 26.815L14.386 23.555L6.276 20.215L13.746 17.135ZM22.276 36.785L6.276 30.155L13.686 27.065L21.576 30.335C21.7897 30.4184 22.0167 30.4625 22.246 30.465C22.4751 30.4604 22.7018 30.4164 22.916 30.335L30.806 27.065L38.276 30.155L22.276 36.785Z" fill="#1E87F0"/>
</svg>
