<svg width="63" height="36" viewBox="0 0 63 36" fill="none" xmlns="http://www.w3.org/2000/svg">
<path d="M33.0228 25.3065C31.6495 26.5489 29.884 27.3336 27.9222 27.3336H14.8439C14.2554 27.3336 13.7322 27.6606 13.4707 28.1183L11.1166 32.1072C10.855 32.565 10.3973 32.6303 10.2665 32.6303C10.0703 32.6303 9.67796 32.565 9.41639 32.1072L4.51202 24.064C4.51202 24.064 4.51202 23.9986 4.44663 23.9986C3.59654 22.7562 3.20419 21.3176 3.20419 19.8136V15.6285C3.20419 11.4435 6.60455 8.10849 10.7242 8.10849H23.4756C23.541 6.99683 23.8025 5.88517 24.1949 4.9043H10.7242C4.77359 4.9043 0 9.74328 0 15.6285V19.8136C0 21.9061 0.588524 23.9987 1.76557 25.7642L6.53916 33.8074C7.32386 35.1152 8.63169 35.8999 10.1357 35.8999C11.6397 35.8999 13.0129 35.1152 13.7322 33.8074L15.6286 30.6032H27.8568C31.6495 30.6032 34.9845 28.6415 36.8809 25.6988H35.7038C34.8537 25.6334 33.9383 25.568 33.0228 25.3065Z" fill="#306ADB"/>
<path d="M52.97 0H35.772C30.7369 0 26.6172 4.11967 26.6172 9.15483V13.3399C26.6172 18.375 30.7369 22.4947 35.772 22.4947H48.9157L51.2698 26.4836C52.3161 28.1838 54.7356 28.1838 55.7819 26.4836L60.5554 18.375C61.5363 16.9364 62.1248 15.1709 62.1248 13.2745V9.08944C62.1248 4.05428 58.0052 0 52.97 0ZM36.8183 13.4053C35.5758 13.4053 34.595 12.4244 34.595 11.182C34.595 9.93953 35.5758 8.95865 36.8183 8.95865C38.0607 8.95865 39.0416 9.93953 39.0416 11.182C39.0416 12.4244 38.0607 13.4053 36.8183 13.4053ZM44.4037 13.4053C43.1613 13.4053 42.1804 12.4244 42.1804 11.182C42.1804 9.93953 43.1613 8.95865 44.4037 8.95865C45.6461 8.95865 46.627 9.93953 46.627 11.182C46.5616 12.4244 45.5808 13.4053 44.4037 13.4053ZM51.9237 13.4053C50.6813 13.4053 49.7004 12.4244 49.7004 11.182C49.7004 9.93953 50.6813 8.95865 51.9237 8.95865C53.1662 8.95865 54.1471 9.93953 54.1471 11.182C54.1471 12.4244 53.1662 13.4053 51.9237 13.4053Z" fill="#51DCA8"/>
</svg>
