<svg width="43" height="36" viewBox="0 0 43 36" fill="none" xmlns="http://www.w3.org/2000/svg">
<path d="M22.6921 9.23401C23.1339 9.67577 23.1339 10.3623 22.6921 10.804L18.9092 14.5869C18.2684 15.2277 17.4056 15.5596 16.5635 15.5596C15.7236 15.5596 14.8608 15.2277 14.2179 14.5869L10.435 10.804C9.99322 10.3622 9.99322 9.67575 10.435 9.23401C10.8767 8.79228 11.5632 8.79226 12.0049 9.23401L15.456 12.6851V1.16009C15.456 0.539961 15.9434 0.0546875 16.5614 0.0546875C17.1816 0.0546875 17.6668 0.542069 17.6668 1.16009V12.6851L21.1179 9.23401C21.5597 8.79226 22.2461 8.79226 22.6879 9.23401H22.6921Z" fill="#606060"/>
<path d="M32.1831 6.31573L28.7321 2.86466V14.3897C28.7321 15.0098 28.2447 15.4951 27.6267 15.4951C27.0065 15.4951 26.5212 15.0077 26.5212 14.3897V2.86466L23.0702 6.31573C22.8483 6.53764 22.5621 6.64756 22.2966 6.64756C22.0311 6.64756 21.7221 6.53764 21.523 6.31573C21.0813 5.87398 21.0813 5.1875 21.523 4.74576L25.3059 0.96285C26.5897 -0.32095 28.7135 -0.32095 29.9952 0.96285L33.7781 4.74576C34.2198 5.18751 34.2198 5.87399 33.7781 6.31573C33.3363 6.75747 32.6498 6.75748 32.2081 6.31573H32.1831Z" fill="#51DCA8"/>
<path d="M36.5203 8.30666C35.9459 8.30666 35.4149 8.79404 35.3921 9.39136C35.3693 9.98868 35.8795 10.4968 36.4768 10.5196C38.3579 10.5424 39.818 12.0025 39.818 13.8151V29.0131C39.818 30.4732 38.866 31.7777 37.518 32.1759C34.9732 32.9723 32.4077 33.2813 29.9086 33.1942C26.4347 33.0387 24.002 32.066 21.4137 31.0476C18.7818 30.0086 16.0379 28.9239 12.2115 28.7683C10.264 28.6584 8.29585 28.8347 6.32768 29.2329C5.26581 29.4548 4.20394 29.1894 3.38471 28.5257C2.61114 27.9056 2.1901 26.9993 2.1901 26.0038V10.8058C2.1901 9.3457 3.14207 8.04119 4.49011 7.64299C4.99823 7.48744 5.50845 7.35471 6.01655 7.22198C6.61385 7.08924 6.96852 6.49194 6.83578 5.89464C6.70305 5.29734 6.10575 4.92197 5.50845 5.07541C4.95468 5.20814 4.40304 5.36369 3.84928 5.53998C1.56997 6.24718 0 8.41658 0 10.8265V26.0245C0 27.6837 0.730035 29.2101 1.991 30.2491C3.31834 31.3338 5.06671 31.7527 6.76942 31.4002C8.53849 31.0248 10.3304 30.8921 12.1016 30.9792C15.5527 31.1347 18.0082 32.1074 20.5965 33.1258C23.2284 34.1648 25.9723 35.2495 29.7987 35.4051C30.1533 35.4051 30.5059 35.4279 30.8377 35.4279C33.2498 35.4279 35.7053 35.0525 38.1609 34.2996C40.4402 33.5924 42.0102 31.423 42.0102 29.0131V13.8151C42.0102 10.7851 39.5982 8.37304 36.5017 8.30668L36.5203 8.30666Z" fill="#4FADF8"/>
<path d="M14.9098 17.4849C14.3125 17.3086 13.7152 17.6404 13.5389 18.2149C13.3626 18.7687 13.2734 19.3431 13.2734 19.9176C13.2734 23.5678 16.7473 26.5543 21.0155 26.5543C24.1119 26.5543 26.8993 24.9843 28.1168 22.5494C28.3822 21.9957 28.1831 21.332 27.6294 21.0665C27.0756 20.7783 26.412 21.0002 26.1465 21.5539C25.3066 23.2566 23.2699 24.3413 21.0134 24.3413C17.9605 24.3413 15.4821 22.3503 15.4821 19.9176C15.4821 19.5629 15.5257 19.2104 15.6377 18.8557C15.814 18.2812 15.4821 17.6611 14.9077 17.4848L14.9098 17.4849Z" fill="#4FADF8"/>
</svg>
