<svg width="34" height="60" viewBox="0 0 34 60" fill="none" xmlns="http://www.w3.org/2000/svg">
<path d="M33 58H20V46C21.1 46 22 45.1 22 44V40H25.9C26.9 40 27.9 39.5 28.5 38.6C29.1 37.8 29.2 36.7 28.8 35.7L28.7 35.5C28.2 34.3 28 33.1 28 31.9V14C28 12.9 27.1 12 26 12H25V1C25 0.4 24.6 0 24 0H10C9.5 0 9 0.5 9 1V12H8C6.9 12 6 12.9 6 14V31.9C6 33.2 5.8 34.4 5.3 35.5L5.2 35.7C4.8 36.7 4.9 37.7 5.5 38.6C6.1 39.5 7.1 40 8.1 40H12V44C12 45.1 12.9 46 14 46V58H1C0.4 58 0 58.4 0 59C0 59.6 0.4 60 1 60H15H19H33C33.6 60 34 59.6 34 59C34 58.5 33.6 58 33 58ZM19 4C19 3.4 19.4 3 20 3C20.6 3 21 3.4 21 4V8C21 8.6 20.6 9 20 9C19.4 9 19 8.6 19 8V4ZM13 4C13 3.4 13.4 3 14 3C14.6 3 15 3.4 15 4V8C15 8.6 14.6 9 14 9C13.4 9 13 8.6 13 8V4ZM18 58H16V46H18V58ZM13 38H8.1C7.7 38 7.4 37.8 7.2 37.5C7 37.2 7 36.8 7.1 36.5L7.2 36.3C7.7 34.9 8 33.4 8 31.9V14H10H24H26V31.9C26 33.4 26.3 34.9 26.8 36.3L26.9 36.5C27 36.8 27 37.2 26.8 37.5C26.6 37.8 26.3 38 25.9 38H21H13Z" fill="#4F86C7"/>
</svg>
