<svg width="49" height="41" viewBox="0 0 49 41" fill="none" xmlns="http://www.w3.org/2000/svg">
<path d="M42.3479 19.3504C42.3479 18.8036 42.8073 18.3604 43.3741 18.3604C43.9408 18.3604 44.4003 18.8036 44.4003 19.3504V22.6504C44.4003 23.1972 43.9408 23.6404 43.3741 23.6404C42.8073 23.6404 42.3479 23.1972 42.3479 22.6504V19.3504Z" fill="#555252"/>
<path d="M46.179 21.0664C46.179 20.5196 46.6384 20.0764 47.2051 20.0764C47.7719 20.0764 48.2313 20.5196 48.2313 21.0664C48.2313 21.6132 47.7719 22.0564 47.2051 22.0564C46.6384 22.0564 46.179 21.6132 46.179 21.0664Z" fill="#555252"/>
<path d="M26.75 15.3904C26.75 14.8436 27.2094 14.4004 27.7762 14.4004C28.3429 14.4004 28.8024 14.8436 28.8024 15.3904V26.6104C28.8024 27.1572 28.3429 27.6004 27.7762 27.6004C27.2094 27.6004 26.75 27.1572 26.75 26.6104V15.3904Z" fill="#555252"/>
<path d="M34.4121 15.3904C34.4121 14.8436 34.8716 14.4004 35.4383 14.4004C36.005 14.4004 36.4645 14.8436 36.4645 15.3904V26.6104C36.4645 27.1572 36.005 27.6004 35.4383 27.6004C34.8716 27.6004 34.4121 27.1572 34.4121 26.6104V15.3904Z" fill="#555252"/>
<path d="M30.5811 16.7104C30.5811 16.1636 31.0405 15.7204 31.6072 15.7204C32.174 15.7204 32.6334 16.1636 32.6334 16.7104V25.2904C32.6334 25.8372 32.174 26.2804 31.6072 26.2804C31.0405 26.2804 30.5811 25.8372 30.5811 25.2904V16.7104Z" fill="#555252"/>
<path d="M38.2432 17.3704C38.2432 16.8236 38.7026 16.3804 39.2694 16.3804C39.8361 16.3804 40.2955 16.8236 40.2955 17.3704V24.6304C40.2955 25.1772 39.8361 25.6204 39.2694 25.6204C38.7026 25.6204 38.2432 25.1772 38.2432 24.6304V17.3704Z" fill="#555252"/>
<path d="M26.758 2.00656C26.758 2.72132 26.3135 3.34879 25.6441 3.70423V37.0958C26.3135 37.4512 26.758 38.0787 26.758 38.7934C26.758 39.9016 25.6894 40.8 24.3712 40.8C23.053 40.8 21.9844 39.9016 21.9844 38.7934C21.9844 38.0235 22.5003 37.3548 23.2573 37.0183V3.78167C22.5003 3.44524 21.9844 2.77655 21.9844 2.00656C21.9844 0.898366 23.053 0 24.3712 0C25.6894 0 26.758 0.898366 26.758 2.00656Z" fill="#4FADF8"/>
<path d="M0.5 19.3133C0.5 18.7541 0.948579 18.3008 1.50193 18.3008C2.05528 18.3008 2.50386 18.7541 2.50386 19.3133V22.6883C2.50386 23.2475 2.05528 23.7008 1.50193 23.7008C0.948579 23.7008 0.5 23.2475 0.5 22.6883V19.3133Z" fill="#EA362C"/>
<path d="M4.22715 16.6133C4.22715 16.0541 4.67573 15.6008 5.22908 15.6008C5.78243 15.6008 6.23101 16.0541 6.23101 16.6133V25.3883C6.23101 25.9475 5.78243 26.4008 5.22908 26.4008C4.67573 26.4008 4.22715 25.9475 4.22715 25.3883V16.6133Z" fill="#EA362C"/>
<path d="M7.9543 12.5633C7.9543 12.0041 8.40288 11.5508 8.95623 11.5508C9.50958 11.5508 9.95816 12.0041 9.95816 12.5633V29.4383C9.95816 29.9975 9.50958 30.4508 8.95623 30.4508C8.40288 30.4508 7.9543 29.9975 7.9543 29.4383V12.5633Z" fill="#EA362C"/>
<path d="M15.9697 9.86328C15.9697 9.30409 16.4183 8.85078 16.9717 8.85078C17.525 8.85078 17.9736 9.30409 17.9736 9.86328V32.1383C17.9736 32.6975 17.525 33.1508 16.9717 33.1508C16.4183 33.1508 15.9697 32.6975 15.9697 32.1383V9.86328Z" fill="#EA362C"/>
<path d="M19.9775 15.2633C19.9775 14.7041 20.426 14.2508 20.9794 14.2508C21.5327 14.2508 21.9813 14.7041 21.9813 15.2633V26.7383C21.9813 27.2975 21.5327 27.7508 20.9794 27.7508C20.426 27.7508 19.9775 27.2975 19.9775 26.7383V15.2633Z" fill="#EA362C"/>
<path d="M11.962 5.81328C11.962 5.25409 12.4106 4.80078 12.964 4.80078C13.5173 4.80078 13.9659 5.25409 13.9659 5.81328V36.1883C13.9659 36.7475 13.5173 37.2008 12.964 37.2008C12.4106 37.2008 11.962 36.7475 11.962 36.1883V5.81328Z" fill="#EA362C"/>
</svg>
